# xmcd
#
# Track frame offsets:
#	150
#	21626
#	42800
#	61120
#	81967
#	102606
#	125820
#	151016
#	172733
#	189050
#	210656
#	229963
#
# Disc length: 3282 seconds
#
# Revision: 0
# Processed by: cddbd v1.5.2PL0 Copyright (c) Steve Scherf et al.
# Submitted via: EasyCDDAExtractor 16.0.9.1
#
DISCID=980cd00c
DTITLE=Ngọc Minh - NMCD19: Đừng Trách Gì Nhau
DYEAR=2002
DGENRE=Country
TTITLE0=Yêu Là Chết Trong Lòng (Phạm Duy)
TTITLE1=Đừng Trách Gì Nhau (Hoàng Nguyên)
TTITLE2=Tiếc Thu (Hoàng Dương)
TTITLE3=Mưa Rừng (Huỳnh Anh)
TTITLE4=Đã Muộn Rồi (Phạm Mạnh Cương)
TTITLE5=Ngàn Thu Áo Tím (Hoàng Trọng - Vĩnh Phúc)
TTITLE6=Trăng Sơn Cước (Văn Phụng)
TTITLE7=Chuyện Hẹn Hò (Trần Thiện Thanh)
TTITLE8=Nụ Cười Sơn Cước (Tô Hải)
TTITLE9=Bài Thơ Hoa Đào (Hoàng Nguyên)
TTITLE10=Vết Đạn Thù Trên Tường Vôi Trắng (Trần Thiện Thanh)
TTITLE11=Nhạc Rừng Khuya (Lam Phương)
EXTD=
EXTT0=
EXTT1=
EXTT2=
EXTT3=
EXTT4=
EXTT5=
EXTT6=
EXTT7=
EXTT8=
EXTT9=
EXTT10=
EXTT11=
PLAYORDER=
